<svg xmlns="http://www.w3.org/2000/svg" version="1.1" xmlns:xlink="http://www.w3.org/1999/xlink" xmlns:svgjs="http://svgjs.com/svgjs" width="512" height="512"><svg xmlns="http://www.w3.org/2000/svg" xmlns:xlink="http://www.w3.org/1999/xlink" width="512" height="512">
	<path transform="scale(0.666667 0.666667)" d="M-0 -0L768 0L768 768L-0 768L0 -0Z"></path>
	<path fill="#FE4102" transform="scale(0.666667 0.666667)" d="M492.637 76.3995C498.646 75.7763 505.615 75.8672 511.319 78.0496C505.803 78.8209 500.216 77.9577 494.649 78.906C495.145 78.2855 495.342 78.0331 495.566 77.25C494.903 76.4506 493.652 76.5514 492.637 76.3995Z"></path>
	<path fill="#FE4102" transform="scale(0.666667 0.666667)" d="M104.606 524.543C104.789 518.2 104.418 512.786 99.7968 507.958C97.7132 505.781 95.4249 503.911 92.8125 502.415L91.3244 501.509C93.1279 501.492 96.6953 501.254 98.3082 502.082C98.822 502.346 99.6279 503.297 100.063 503.727C104.146 507.761 106.163 516.182 106.138 521.746C106.135 522.33 106.212 524.166 105.887 524.584C105.371 524.269 105.181 524.443 104.606 524.543Z"></path>
	<path fill="#7B4548" transform="scale(0.666667 0.666667)" d="M463.329 548.062L464.097 548.132C458.072 555.298 455.911 563.469 452.191 571.798C451.389 570.375 451.019 568.477 450.539 566.909C448.837 561.912 446.781 557.47 444.269 552.842C450.726 552.304 457.207 550.066 463.329 548.062Z"></path>
	<path fill="#251E25" transform="scale(0.666667 0.666667)" d="M490.738 506.55C491.473 507.958 492.554 510.533 492.312 512.142L491.398 512.438C491.3 514.071 491.373 515.965 490.872 517.523C489.797 521.397 482.972 524.93 479.557 526.797L479.268 526.934L478.31 527.246L477.844 526.929L477.158 526.882C477.052 527.989 477.126 530.04 476.619 531.02L476.054 515.062L476.88 514.541C478.748 513.807 480.52 512.591 482.273 511.597C485.141 509.971 488.031 508.446 490.738 506.55Z"></path>
	<path fill="#342B37" transform="scale(0.666667 0.666667)" d="M479.268 526.934L478.715 526.563C478.975 524.872 479.095 521.513 480.338 520.329L480.66 520.039C483.704 517.234 487.423 515.273 490.716 512.757L490.872 517.523C489.797 521.397 482.972 524.93 479.557 526.797L479.268 526.934Z"></path>
	<path fill="#342B37" transform="scale(0.666667 0.666667)" d="M506.646 615.485L506.745 628.695C506.784 631.229 507.277 634.423 506.709 636.875C505.749 641.018 501.634 644.492 498.163 646.657C495.678 648.207 492.099 650.118 489.188 650.558C486.884 650.906 484.387 650.694 482.061 650.628C480.193 650.575 478.263 650.621 476.438 650.201L476.337 648.562L475.829 626.369C480.882 628.501 486.34 629.879 491.766 628.332L492.375 628.152C494.726 627.489 497.142 626.532 499.071 624.989L499.457 624.672C502.582 622.171 504.814 619.026 506.646 615.485Z"></path>
	<path fill="#F3E1D6" transform="scale(0.666667 0.666667)" d="M279.849 554.15L283.94 554.679C276.54 575.616 272.032 599.074 275.636 621.218C272.136 620.644 268.805 619.919 265.431 618.81L262.344 617.213C260.091 615.743 258.338 613.283 257.861 610.613C257.306 607.5 257.703 603.867 258.166 600.76C260.618 584.278 270.954 567.981 279.849 554.15Z"></path>
	<path fill="#342B37" transform="scale(0.666667 0.666667)" d="M547.617 590.438C548.036 590.539 547.8 590.446 548.278 590.812L546.643 608.457C546.098 613.315 545.796 617.958 543.23 622.229C536.515 624.394 528.846 622.976 521.929 622.478C520.014 622.34 516.944 622.52 515.222 621.776L514.852 620.785L510.576 605.571C514.095 604.576 517.67 603.964 521.153 602.796C530.348 599.712 539.072 594.962 547.617 590.438Z"></path>
	<path fill="#342B37" transform="scale(0.666667 0.666667)" d="M503.42 496.248C504.254 495.674 504.779 495.431 505.723 495.079C508.83 493.918 512.093 491.202 514.875 489.378C520.39 485.762 526.413 481.771 532.459 479.152L532.469 493.79C532.479 495.867 532.944 498.926 531.938 500.727C528.88 502.959 524.795 503.972 521.234 505.146L505.216 510.4C502.797 511.218 498.029 512.748 496.402 514.75C495.705 515.608 495.254 517.198 494.877 518.238C493.27 522.674 492.86 527.41 491.384 531.86C491.328 529.47 491.211 527.009 491.468 524.629C491.934 520.313 492.906 516.509 492.312 512.142C492.554 510.533 491.473 507.958 490.738 506.55L491.584 505.779L491.055 505.246L486.374 496.754C489.55 494.362 493.621 492.572 497.1 490.605C500.164 491.99 501.632 493.465 503.42 496.248Z"></path>
	<path fill="#FE4102" transform="scale(0.666667 0.666667)" d="M486.374 496.754C489.55 494.362 493.621 492.572 497.1 490.605C500.164 491.99 501.632 493.465 503.42 496.248C503.59 497.095 503.914 497.587 503.402 498.339C502.316 499.933 500.269 500.896 498.627 501.804L491.584 505.779L491.055 505.246L486.374 496.754Z"></path>
	<path fill="#DEB79C" transform="scale(0.666667 0.666667)" d="M477.665 543.562C478.068 543.504 478.439 543.54 478.844 543.562C480.04 547.012 480.48 550.851 481.272 554.423C483.458 564.284 485.905 575.765 490.803 584.642C482.765 583.915 474.969 586.281 467.413 588.701L461.938 590.774L456.007 574.7C457.548 571.577 459.346 568.592 460.747 565.397C464.988 555.724 467.787 548.662 477.665 543.562Z"></path>
	<path fill="#DEB79C" transform="scale(0.666667 0.666667)" d="M481.003 592.228L483.286 592.065C484.31 592.057 485.426 592.056 486.409 592.373C488.73 593.122 491.2 594.996 493.339 596.22C497.085 598.363 500.824 599.852 504.004 602.888C505.149 608.38 504.836 613.008 501.603 617.812C498.632 622.229 494.592 624.844 489.398 625.904C485.728 626.059 482.303 625.92 478.935 624.273C477.583 623.612 476.236 622.744 475.262 621.582C473.777 619.81 472.729 617.41 471.701 615.344C468.89 609.695 466.501 603.768 464.532 597.78C469.883 595.52 475.247 593.196 481.003 592.228Z"></path>
	<path fill="#FF7636" transform="scale(0.666667 0.666667)" d="M276.163 627.562C276.806 627.879 276.867 629.451 276.982 630.142C278.43 638.86 281.605 647.707 287.604 654.366C293.87 661.322 300.963 664.349 310.179 664.82C310.872 669.131 312.49 673.201 313.631 677.403C311.123 682.636 305.894 686.183 300.854 688.682L296.537 690.227C290.59 691.919 283.529 691.658 278.074 688.588C272.356 685.371 268.872 680.363 267.136 674.109C262.779 658.409 268.332 641.22 276.163 627.562Z"></path>
	<path fill="#251E25" transform="scale(0.666667 0.666667)" d="M233.612 251.041C242.669 251.694 251.656 254.17 259.811 258.161C266.415 261.393 277.102 268.157 279.594 275.344C279.365 276.529 279.038 276.936 278.163 277.785C275.379 280.487 271.5 282.362 268.223 284.445L256.661 292.394L234.339 311.747C233.401 310.191 233.205 306.728 232.802 304.842C228.948 286.793 229.875 269.027 233.612 251.041Z"></path>
	<path fill="#251E25" transform="scale(0.666667 0.666667)" d="M484.378 249.48L488.92 249.317C489.7 250.095 490.233 251.093 490.688 252.09C492.721 256.553 493.34 261.419 494.059 266.213C496.409 281.9 496.217 297.443 490.489 312.458L473.029 297.582C464.78 290.814 455.443 283.975 445.62 279.724L452.274 268.452C459.406 258.113 472.286 251.708 484.378 249.48Z"></path>
	<path fill="#F3E1D6" transform="scale(0.666667 0.666667)" d="M408.571 558.907C409.563 558.788 409.627 558.584 410.496 559.169C410.567 563.177 410.167 567.269 409.887 571.268C409.005 583.822 406.861 596.547 400.805 607.743C398.067 612.805 393.97 619.451 388.027 620.982C383.523 622.142 378.962 620.05 375.207 617.756C373.08 616.109 371.046 614.525 369.66 612.156C365.873 605.682 375.019 583.257 377.664 575.77L382.41 561.085L408.571 558.907Z"></path>
	<path fill="#342B37" transform="scale(0.666667 0.666667)" d="M569.697 448.688L570.194 448.703C570.262 449.208 570.26 449.605 570.175 450.109C565.046 480.496 577.794 511.633 589.114 539.189L601.061 567.811C595.415 566.866 589.461 566.466 583.77 567.35C575.779 568.591 567.598 571.996 560.25 575.304L545.75 582.084C537.02 586.425 528.315 591.532 518.748 593.768C516.584 594.274 513.887 594.935 511.688 594.576C509.563 594.228 508.031 591.312 506.961 589.647C501.298 578.923 496.968 567.768 492.653 556.462C491.129 552.472 489.149 548.384 488.233 544.212C496.655 538.598 499.081 531.557 501.576 522.196C501.682 521.801 502.031 519.863 502.253 519.638C502.812 519.073 517.795 515.33 520.349 514.506C526.497 512.523 533.307 509.981 538.138 505.555C545.592 498.727 548.31 488.3 554.726 480.496C550.408 482.383 546.538 485.168 542.563 487.671L541.946 472.315L569.697 448.688Z"></path>
	<path fill="#F3E1D6" transform="scale(0.666667 0.666667)" d="M434.498 555.188L435.222 555.214C436.9 557.257 438.012 560.813 439.167 563.269L449.043 584.502C454.186 595.634 460.32 606.353 464.397 617.956C471.278 637.542 465.687 659.873 457.005 677.969C453.258 685.778 449.856 692.177 441.197 695.152C436.781 696.669 432.144 697.237 427.526 697.724C416.172 698.922 403.421 699.027 392.946 693.927C385.477 690.291 379.631 684.4 376.49 676.669C374.537 671.861 373.389 666.707 371.717 661.795L391.907 654.981C396.077 653.477 400.438 652.158 404.328 650.011C403.384 648.622 401.955 645.844 400.5 645.067L399.821 645.622C398.163 646.681 395.459 647.258 393.559 647.796C380.93 651.371 366.871 652.488 353.801 652.555C349.807 652.576 345.569 652.79 341.672 651.823C339.244 647.546 337.749 642.929 336.274 638.259L330.478 617.488C330.388 624.616 329.781 632.314 330.628 639.379L330.721 640.125C331.289 644.932 332.65 650.148 334.408 654.659C334.97 656.099 335.643 657.893 336.821 658.926C342.797 664.161 359.257 662.834 366.569 662.567C362.615 672.775 360.811 682.037 360.47 692.92C356.228 692.681 352.02 692.496 347.857 691.583C337.721 689.36 331.053 683.812 325.587 675.16L319.829 664.029C324.455 662.199 328.358 659.909 332.175 656.716L327.371 647.704L317.719 625.029L313.33 613.966C312.328 611.348 311.416 608.518 309.92 606.142C310.93 614.832 311.853 623.572 313.994 632.074C315.678 638.766 318.196 645.257 320.37 651.803C316.038 654.413 310.581 656.116 305.525 654.938C300.031 653.657 295.811 649.447 292.931 644.782C289.273 638.859 287.123 631.918 285.614 625.164C280.563 602.559 282.915 577.852 288.193 555.509C295.043 557.4 302.334 558.347 309.365 559.331C319.026 560.683 328.797 561.868 338.543 562.388C351.657 563.087 364.81 562.755 377.921 562.167C376.753 567.6 374.955 573.119 372.865 578.266L363.663 599.485C362.136 603.453 360.461 607.677 360.743 612C360.994 615.868 365.264 620.176 368.044 622.609C373.355 627.259 379.549 630.566 386.812 629.937C392.083 629.481 396.451 626.863 399.826 622.851C404.327 617.5 406.739 610.823 408.715 604.218C411.441 595.105 413.23 585.42 413.462 575.889C413.603 570.079 413.076 564.148 412.552 558.368L434.498 555.188Z"></path>
	<path fill="#FF7636" transform="scale(0.666667 0.666667)" d="M105.887 524.584C105.752 527.661 104.913 530.615 104.014 533.544L104.982 533.095C114.578 528.533 119.6 521.21 123.016 511.381C130.589 489.59 126.03 465.523 111.463 447.677C107.023 442.239 101.906 437.408 97.2793 432.138C92.0437 426.174 87.2295 419.426 83.7857 412.258C75.7797 395.595 76.5415 374.191 88.737 359.643C92.6863 354.932 97.7387 350.985 102.348 346.937C115.824 335.102 126.606 322.161 131.11 304.433C136.014 285.133 132.735 267.302 127.143 248.597C125.16 241.961 122.819 235.376 121.728 228.514C118.698 209.435 122.801 188.857 129.228 170.909C141.586 136.399 164.044 106.481 193.201 84.4056C203.476 76.6265 215.041 69.7659 226.457 63.8229C238.372 57.6195 250.9 53.0011 263.007 47.2652C257.564 54.6856 252.075 62.736 248.765 71.3632C246.716 76.7034 245.59 82.3832 244.975 88.0592C243.147 104.924 248.561 118.448 259.863 130.796C266.385 137.92 273.635 144.289 279.666 151.867C283.416 156.578 286.544 161.751 289.605 166.925C298.499 181.955 305.796 198.726 307.362 216.294C308.296 226.767 307.218 236.789 306.039 247.171C303.307 244.387 299.987 242.052 296.885 239.699C292.075 236.049 287.176 232.356 281.923 229.366C271.418 223.386 260.167 219.057 248.791 215.05C234.272 209.937 219.703 205.58 204.521 202.942C203.231 203.944 199.74 218.763 199.175 221.195C193.155 247.106 190.577 274.644 191.751 301.217C192.191 311.199 193.353 321.102 194.675 330.998C195.64 338.214 196.711 345.374 198.39 352.464L200.23 359.884C200.403 360.602 200.969 362.062 200.922 362.76C200.899 363.109 200.174 364.308 200.023 364.634L197.723 369.757C196.34 372.983 195.157 376.309 194.062 379.642C190.399 390.794 188.351 402.361 187.054 414C184.913 433.201 184.581 453.282 188.641 472.272C190.802 482.381 194.308 491.951 198.966 501.178C202.751 508.675 207.216 515.458 213.249 521.341C220.819 528.722 230.091 533.72 239.511 538.303C249.357 543.094 259.343 547.296 269.746 550.729C264.714 558.771 260.396 567.01 256.63 575.708C251.402 587.781 247.703 599.52 248.706 612.849L245.918 614.742C236.868 620.406 225.682 623.323 215.044 622.781C208.652 622.456 202.537 621.04 196.334 619.591C195.675 621.366 195.675 623.558 195.307 625.435C194.368 630.216 192.1 634.775 189.41 638.803C184.372 646.345 176.599 653.208 169.199 658.416C147.305 673.825 120.259 680.658 94.1763 685.044L58.4398 690.834C59.8728 687.249 60.5958 682.991 61.5048 679.219C63.2862 671.827 65.0469 664.339 67.3687 657.098C72.199 642.034 80.574 629.588 89.5566 616.788C96.6794 606.637 103.801 596.963 112.695 588.258L105.113 591.783C89.4924 598.066 72.3182 599.801 56.5405 593.024C41.9266 586.747 31.2857 574.959 25.4741 560.24C18.352 542.201 20.5548 521.27 28.182 503.81C35.2708 487.583 48.4833 471.344 65.368 464.846C74.7617 461.23 85.0794 459.994 94.5 464.305C103.889 468.603 111.152 476.644 114.803 486.27C112.452 482.991 110.222 479.741 106.858 477.4C102.565 474.411 96.8842 473.646 91.7946 474.599C85.6667 475.746 80.1001 479.321 76.6266 484.515C73.2128 489.62 72.0471 495.611 73.3267 501.607C75.0878 509.857 80.4019 514.676 87.75 518.207C90.2104 519.39 92.7951 520.358 95.0643 521.898C100.163 525.359 99.0694 529.752 100.136 535.1C103.054 531.841 103.795 528.71 104.606 524.543C105.181 524.443 105.371 524.269 105.887 524.584Z"></path>
	<path fill="#E86849" transform="scale(0.666667 0.666667)" d="M226.809 583.988C227.892 582.529 229.183 581.291 230.462 580.007C230.151 581.209 228.981 587.545 228.305 588.021C227.986 587.492 227.695 587.099 227.19 586.727L226.857 586.5L226.809 583.988Z"></path>
	<path fill="#D84839" transform="scale(0.666667 0.666667)" d="M217.527 148.312C218.346 148.194 217.919 148.204 218.809 148.312C211.094 151.927 205.141 156.274 200.153 163.313L199.541 163.735C199.481 162.633 199.995 161.651 200.465 160.668C203.556 154.204 211.094 150.576 217.527 148.312Z"></path>
	<path fill="#D84839" transform="scale(0.666667 0.666667)" d="M138.078 378.562C139.202 378.266 139.916 378.341 141 378.686C148.49 381.066 151.697 386.056 155.086 392.664C153.308 390.593 151.578 388.667 149.403 387.006C145.851 384.293 141.817 382.308 138.232 379.637L138.078 378.562Z"></path>
	<path fill="#D84839" transform="scale(0.666667 0.666667)" d="M226.809 583.988L226.857 586.5L227.19 586.727C227.695 587.099 227.986 587.492 228.305 588.021C227.666 589.556 227.078 591.233 226.183 592.638L225.938 593.011C223.139 597.351 218.363 600.447 214.776 604.162C214.994 601.531 215.037 598.686 215.887 596.168C217.595 591.112 222.941 587.393 226.809 583.988Z"></path>
	<path fill="#D84839" transform="scale(0.666667 0.666667)" d="M138.763 343.864C138.89 348.496 137.813 352.992 137.284 357.562C138.383 358.324 139.324 357.911 140.625 357.765L140.983 358.312L140.374 359.111C139.987 359.558 139.13 360.353 138.585 360.577C137.244 361.13 134.889 360.876 133.439 360.833C130.273 360.74 127.125 360.551 123.962 360.794L123.378 360.842L119.18 362.447C124.152 359.303 130.244 356.347 134.062 351.834C136.059 349.473 137.377 346.606 138.763 343.864Z"></path>
	<path fill="#D84839" transform="scale(0.666667 0.666667)" d="M117.848 399.562C119.558 399.464 122.403 402.449 123.769 403.582L125.419 399.707C127.449 401.579 128.893 403.912 130.518 406.125L135.623 412.4C135.954 413.194 136.055 413.906 136.18 414.75L135.75 415.203C130.458 413.46 123.937 410.777 119.586 407.329C118.425 404.827 117.594 402.354 117.848 399.562Z"></path>
	<path fill="#D84839" transform="scale(0.666667 0.666667)" d="M205.073 550.25C207.761 552.916 210.504 555.837 211.649 559.541C212.602 562.626 212.612 566.292 211.027 569.167L210.763 569.625C209.016 572.699 205.635 575.062 203.51 577.979L203.217 578.392L201.188 582.836C200.55 580.861 203.096 575.205 203.749 573.075C204.431 570.847 205.003 568.557 205.383 566.257C206.255 560.988 205.678 555.518 205.073 550.25Z"></path>
	<path fill="#D84839" transform="scale(0.666667 0.666667)" d="M248.699 147.932C252.049 148.039 255.11 148.381 258.18 149.873C265.951 153.647 269.829 164.106 272.373 171.765L269.325 166.801C266.561 162.949 262.611 158.197 258.127 156.41C256.384 155.716 253.793 155.421 252.283 154.346C250.873 153.342 249.664 151.364 248.496 150.046C246.303 149.445 244.32 149.308 242.062 149.23L241.602 148.688C243.595 147.8 246.515 148.011 248.699 147.932Z"></path>
	<path fill="#D84839" transform="scale(0.666667 0.666667)" d="M211.119 165.473C212.778 165.43 214.58 165.561 216.225 165.817C218.797 166.219 221.275 167.393 222.844 169.49C223.053 170.747 223.003 170.979 222.562 172.18C221.177 173.088 218.121 172.506 216.467 172.415L215.897 179.644C212.846 178.281 209.42 177.13 206.062 177.41C203.529 178.781 202.066 181.2 200.491 183.52L194.825 193.481C195.519 187.834 196.806 183.115 199.858 178.243C202.37 174.233 206.398 166.535 211.119 165.473Z"></path>
	<path fill="#D84839" transform="scale(0.666667 0.666667)" d="M242.782 183.562C245.097 183.063 246.958 183.535 249.073 184.515C252.479 186.095 255.879 188.511 257.126 192.188C257.991 194.736 259.122 202.277 257.577 204.551C256.586 206.009 255.193 206.424 253.57 206.864C251.274 207.205 249.137 207.486 246.863 206.764C244.385 205.977 242.905 203.384 241.811 201.22C239.942 197.522 237.09 191.963 238.663 187.771C239.419 185.758 240.904 184.486 242.782 183.562Z"></path>
	<path fill="#D84839" transform="scale(0.666667 0.666667)" d="M148.898 580.551C151.996 580.238 154.063 580.337 156.75 582.034C159.305 583.648 161.306 586.159 161.853 589.178C162.505 592.781 161.573 597.068 159.393 600C157.47 602.586 155.432 603.434 152.345 603.863C148.584 603.852 144.246 603.588 141.485 600.64C138.772 597.742 138.732 593.284 138.725 589.569C141.316 585.028 144.078 582.521 148.898 580.551Z"></path>
	<path fill="#E86849" transform="scale(0.666667 0.666667)" d="M140.138 590.438L141.151 590.373C142.567 591.239 143.731 591.97 144.824 593.246L144.562 594.337C143.959 594.641 143.664 594.601 143.003 594.599C141.975 593.35 140.5 592.036 140.138 590.438Z"></path>
	<path fill="#D84839" transform="scale(0.666667 0.666667)" d="M101.647 636.066C105.454 635.418 109.763 636.265 113.625 636.369C119.041 636.514 124.434 636.359 129.841 636.804C128.694 637.92 127.198 639.16 126.347 640.512C124.968 642.704 124.148 645.32 122.957 647.63C121.757 649.958 120.194 652.139 118.868 654.4C117.141 657.345 115.617 660.346 113.686 663.171C112.357 664.498 111.057 665.868 109.349 666.7L108.9 666.908C105.886 668.329 101.9 668.79 98.7418 667.602C95.5757 666.411 92.8214 663.77 91.4567 660.678C89.4858 656.214 90.6637 650.503 92.3501 646.1C94.1707 641.347 96.9889 638.111 101.647 636.066Z"></path>
	<path fill="#FF7636" transform="scale(0.666667 0.666667)" d="M108.098 653.062C109.449 652.803 110.258 652.841 111.562 653.283C112.378 654.106 113.071 654.571 112.898 655.875C112.655 657.699 111.423 658.924 110.062 660.021C109.578 660.239 109.22 660.354 108.682 660.334C107.516 660.291 106.866 660.063 106.136 659.062C105.809 658.614 105.513 657.832 105.563 657.293C105.757 655.203 106.525 654.378 108.098 653.062Z"></path>
	<path fill="#D84839" transform="scale(0.666667 0.666667)" d="M61.089 491.812L61.3591 492.092L58.7878 499.474C56.9397 505.174 56.5577 511.356 57.0551 517.312C57.8252 526.537 63.4878 532.329 70.1335 537.957C71.1512 536.588 72.3011 535.011 73.7765 534.116L74.1643 533.891C75.4024 533.159 76.5651 532.646 77.9825 532.349C84.4175 531 89.7703 534.243 95.3343 536.871C97.9722 538.118 100.435 538.999 102.888 540.631C101.221 543.789 99.4263 546.406 97.066 549.088C94.2038 551.843 91.1293 554.203 87.2617 555.35C81.4426 557.075 75.3389 555.722 70.125 552.894C62.8166 548.929 56.3652 540.632 54.0561 532.67C51.3425 523.313 51.2373 513.525 54.7455 504.375C56.3959 500.07 58.856 495.847 61.089 491.812Z"></path>
	<path fill="#F3E1D6" transform="scale(0.666667 0.666667)" d="M325.472 276.766C329.843 275.188 335.714 275.008 340.354 274.631C356.287 273.337 372.251 273.59 388.125 275.512C398.104 276.72 408.384 278.268 417.644 282.443C418.789 282.96 419.806 283.608 420.821 284.342L420.809 284.38C458.685 301.799 489.98 331.279 509.897 367.859C513.605 374.669 517.281 381.759 519.996 389.027C526.555 406.583 527.481 425.211 526.902 443.768C526.589 453.789 526.011 463.374 523.057 473.036C515.541 479.96 505.642 485.03 497.1 490.605C493.621 492.572 489.55 494.362 486.374 496.754L491.055 505.246L491.584 505.779L490.738 506.55C488.031 508.446 485.141 509.971 482.273 511.597C480.52 512.591 478.748 513.807 476.88 514.541L476.054 515.062L476.619 531.02C475.987 531.288 475.401 531.609 474.711 531.661L457.803 537.388C442.599 541.52 426.831 543.417 411.242 545.503L373.81 549.805C339.192 552.177 304.149 548.534 271.125 537.79C258.815 533.785 246.419 529.106 235.178 522.624C230.428 519.886 225.754 516.846 221.686 513.151C210.237 502.753 203.092 488.426 199.169 473.611C196.705 464.309 195.86 454.745 195.573 445.152C195.061 428.028 196.565 410.22 201.642 393.8C205.379 381.711 210.959 370.233 217.35 359.335C241.029 318.963 280.176 288.554 325.472 276.766Z"></path>
	<path transform="scale(0.666667 0.666667)" d="M486.374 496.754L491.055 505.246L491.584 505.779L490.738 506.55C488.031 508.446 485.141 509.971 482.273 511.597C480.52 512.591 478.748 513.807 476.88 514.541L475.915 514.05L475.827 514.164L475.448 514.21C473.365 511.338 471.329 508.418 469.947 505.136L486.374 496.754Z"></path>
	<path fill="#E86849" transform="scale(0.666667 0.666667)" d="M475.915 514.05C479.043 509.81 485.872 506.037 491.055 505.246L491.584 505.779L490.738 506.55C488.031 508.446 485.141 509.971 482.273 511.597C480.52 512.591 478.748 513.807 476.88 514.541L475.915 514.05Z"></path>
	<path fill="#54576E" transform="scale(0.666667 0.666667)" d="M474.711 531.661C471.083 530.051 466.804 529.151 462.982 528.019C455.426 525.783 447.854 523.315 440.128 521.747C441.376 520.732 443.103 520.121 444.553 519.404L452.497 515.271C458.302 512.053 463.876 507.793 469.947 505.136C471.329 508.418 473.365 511.338 475.448 514.21L475.827 514.164L475.915 514.05L476.88 514.541L476.054 515.062L476.619 531.02C475.987 531.288 475.401 531.609 474.711 531.661Z"></path>
	<path transform="scale(0.666667 0.666667)" d="M369.35 471.181L376.196 470.966L361.929 484.553C362.965 488.213 364.206 491.626 367.67 493.707C369.687 494.919 372.467 495.049 374.715 494.405C379.493 493.036 379.113 489.403 381.096 485.812L381.347 486L381.329 487.256C381.094 490.43 379.789 494.17 377.278 496.227C375.048 498.054 371.825 498.803 369 498.396C363.973 497.671 360.198 493.36 357.486 489.424C355.493 492.317 353.56 494.391 350.684 496.415C347.272 498.424 343.887 499.607 339.938 498.566C337.312 497.875 335.267 496.433 333.928 494.053C332.67 491.818 331.858 488.295 332.608 485.812L333.188 485.584C333.367 487.345 333.685 489.276 334.425 490.892C335.417 493.06 337.325 494.858 339.629 495.547C341.721 496.172 344.192 495.858 346.084 494.812C349.876 492.717 351.448 489.208 352.515 485.234C351.435 483.264 349.517 481.534 348.014 479.87L340.365 471.322L369.35 471.181Z"></path>
	<path transform="scale(0.666667 0.666667)" d="M308.054 431.782C308.553 432.767 308.937 433.748 309.278 434.796C312.972 446.168 312.617 460.606 307.053 471.312C302.271 480.516 292.619 487.65 282.824 490.734C271.918 494.168 261.122 492.698 251.077 487.476C240.116 481.777 233.909 473.919 230.26 462.118C226.736 450.724 227.66 438.152 233.374 427.621C238.877 417.477 247.613 410.855 258.638 407.7C268.211 404.961 280.866 405.922 289.607 410.777C297.03 413.652 303.194 420.418 306.382 427.615L308.054 431.782Z"></path>
	<path fill="#FE4102" transform="scale(0.666667 0.666667)" d="M308.054 431.782C308.553 432.767 308.937 433.748 309.278 434.796C312.972 446.168 312.617 460.606 307.053 471.312C302.271 480.516 292.619 487.65 282.824 490.734C271.918 494.168 261.122 492.698 251.077 487.476C240.116 481.777 233.909 473.919 230.26 462.118C226.736 450.724 227.66 438.152 233.374 427.621C238.877 417.477 247.613 410.855 258.638 407.7C268.211 404.961 280.866 405.922 289.607 410.777C289.959 412.631 293.182 415.282 294.434 416.864C294.643 417.128 295.407 418.004 295.449 418.293C295.509 418.7 294.868 420.242 294.734 420.698L292.289 429.291C288.253 433.038 283.534 435.013 278.675 437.448C275.138 439.22 271.773 441.154 268.136 442.742L272.269 432.4L258.824 423.856L259.01 423.573C261.374 419.767 262.254 414.425 263.771 410.169C256.091 412.462 250.693 416.64 245.02 422.198C241.962 425.195 239.079 428.331 237.063 432.145C233.156 439.534 233.462 450.29 235.979 458.062C239.055 467.56 245.263 474.992 254.231 479.443C262.988 483.789 271.519 484.492 280.794 481.359C290.51 478.076 299.344 469.984 303.767 460.774C305.892 456.349 307.052 451.117 307.433 446.25C307.677 443.148 307.66 439.994 307.658 436.884C307.657 435.261 307.369 433.255 308.054 431.782Z"></path>
	<path fill="#FE4102" transform="scale(0.666667 0.666667)" d="M432.036 408.617C441.694 405.092 454.278 404.28 463.757 408.656C475.148 413.914 483.712 424.038 487.92 435.739C491.59 445.942 491.424 458.97 486.727 468.793C481.06 480.648 470.323 487.255 458.223 491.47C447.751 495.117 436.344 494.729 426.323 489.894C415.957 484.892 408.334 475.585 404.637 464.807C400.996 454.191 400.524 442.686 405.607 432.41C406.454 430.699 407.318 428.979 408.54 427.504C413.73 418.066 422.078 412.171 432.036 408.617Z"></path>
	<path fill="#FFFED2" transform="scale(0.666667 0.666667)" d="M460.286 471.114C458.995 465.574 458.997 460.132 462.077 455.132C464.088 451.867 467.536 449.429 471.308 448.685C472.876 448.375 474.61 448.524 476.203 448.574C479.097 451.691 480.605 454.93 480.433 459.25C480.212 464.813 476.399 471.159 472.333 474.773C471.201 475.779 469.978 476.342 468.464 476.478L468.004 476.018L466.701 474.938L465.054 475.006L464.438 475.075C462.794 474.001 461.59 472.561 460.286 471.114Z"></path>
	<path transform="scale(0.666667 0.666667)" d="M408.54 427.504C413.73 418.066 422.078 412.171 432.036 408.617L427.235 417.146C432.76 424.999 438.178 432.616 445.688 438.732C447.031 439.826 448.557 441.271 450.319 441.562L452.062 441.755C454.283 438.691 450.897 432.902 451.915 429.637C454.777 429.542 457.914 429.827 460.327 428.062C462.008 424.12 458.519 415.634 457.371 411.704C463.544 413.972 470.799 419.246 473.436 425.476C473.972 426.743 473.699 428.392 473.137 429.603C470.665 434.923 465.744 439.157 460.224 441.03C458.122 441.743 456.139 442.199 453.938 442.475L452.112 442.718C451.783 446.328 451.508 449.817 450.606 453.337L444.092 453.519C448.984 459.809 453.951 466.173 460.286 471.114C461.59 472.561 462.794 474.001 464.438 475.075L465.054 475.006L466.701 474.938L468.004 476.018C467.361 476.883 466.749 477.437 465.866 478.037C456.905 484.132 446.929 486.674 436.24 484.603C427.027 482.819 418.005 477.091 412.791 469.245C406.883 460.356 403.797 447.587 405.798 437.027C406.387 433.919 407.842 431.141 408.444 428.026L408.54 427.504Z"></path>
	<path fill="#251E25" transform="scale(0.666667 0.666667)" d="M325.472 276.766C329.843 275.188 335.714 275.008 340.354 274.631C356.287 273.337 372.251 273.59 388.125 275.512C398.104 276.72 408.384 278.268 417.644 282.443C418.789 282.96 419.806 283.608 420.821 284.342L420.809 284.38C420.858 288.866 422.227 293.809 422.68 298.369C423.971 311.358 423.059 325.045 419.529 337.638C414.924 354.068 404.114 369.644 389.072 378.101C392.711 372.924 394.99 366.489 395.747 360.218C396.663 352.619 396.062 341.093 390.892 334.905C389.589 333.344 388.441 332.736 386.438 332.626C385.498 332.963 384.871 333.256 384.235 334.051C382.242 336.54 380.907 340.028 379.419 342.856C377.501 346.498 375.275 349.928 372.719 353.157C364.325 363.76 352.37 368.73 339.301 370.21C341.958 368.666 344.32 366.909 346.624 364.874C352.934 359.302 358.896 351.839 359.33 343.051C359.469 340.247 359.574 335.583 357.244 333.562C355.745 332.263 353.135 333.101 351.448 333.669C348.333 334.716 345.411 336.369 342.445 337.772C338.686 339.55 334.89 341.089 330.924 342.35C318.892 346.173 306.649 345.476 294.316 346.909L297.614 344.471C316.273 327.91 324.204 300.899 325.472 276.766Z"></path>
	<path fill="#FF7636" transform="scale(0.666667 0.666667)" d="M376.604 265.657C366.445 265.174 356.301 264.759 346.134 265.266C339.149 265.615 332.183 266.557 325.265 267.54L324.009 257.432C323.18 248.993 322.932 240.066 323.921 231.641C326.8 207.108 337.991 183.929 353.628 165.031C364.557 151.824 377.588 141 390.77 130.15C412.121 112.576 434.021 95.5763 459.802 85.0127C470.335 80.6969 481.27 77.4618 492.637 76.3995C493.652 76.5514 494.903 76.4506 495.566 77.25C495.342 78.0331 495.145 78.2855 494.649 78.906C473.008 82.6625 452.961 95.3437 440.301 113.36C434.044 122.265 430.166 132.12 432.114 143.149C433.67 151.957 438.49 159.648 442.46 167.522C450.227 182.929 453.616 200.169 453.398 217.396C456.464 210.085 462.969 203.792 467.661 197.373L496.484 156.267C502.77 146.97 509.773 137.854 514.03 127.399C516.812 120.565 517.726 114.223 518.348 106.944C520.901 113.402 522.496 120.226 525.188 126.636C531.863 142.534 542.791 157.679 553.215 171.373L562.529 182.945C564.502 185.195 566.956 187.311 568.633 189.771C585.129 183.784 602.616 178.273 620.381 180.728C626.846 181.621 633.325 183.782 639.229 186.535C657.936 195.261 671.533 213.271 678.47 232.297C686.18 253.444 685.357 277.575 678.012 298.716C698.525 300.508 719.846 310.343 733.159 326.34C746.908 342.861 755.664 365.396 753.555 387.089C751.761 405.549 743.433 421.762 728.993 433.571C711.862 447.58 689.47 451.152 671.359 463.149C665.079 467.309 659.737 472.732 655.435 478.899C651.523 484.508 648.399 491.582 647.618 498.425L647.544 499.125C646.127 512.163 649.432 525.106 657.709 535.42C661.531 540.184 666.504 544.569 671.805 547.643C671.435 542.025 672.014 537.681 674.992 532.813C674.784 534.766 673.969 536.437 673.464 538.312C672.609 541.482 672.805 545.161 673.116 548.399C674.633 549.544 675.919 550.313 677.693 551.034L678.916 551.536C677.916 549.457 677.014 547.505 676.462 545.25C675.454 541.138 675.637 537.592 675.975 533.434C676.207 530.575 677.97 528 680.118 526.145C682.079 524.451 684.152 523.921 686.707 524.178C689.147 524.423 690.805 525.602 692.758 526.943C686.283 530.384 682.17 534.223 679.982 541.379C678.933 544.81 679.806 547.935 680.608 551.308C691.426 547.251 704.126 543.348 709.448 532.037C712.502 525.546 712.281 518.602 709.82 511.974C707.658 506.151 703.352 500.926 697.57 498.457C690.199 495.309 681.583 496.503 674.373 499.528C668.859 501.842 665.382 505.104 661.734 509.741C665.008 500.493 673.922 491.76 682.688 487.592C692.8 482.782 704.115 482.414 714.569 486.289C727.13 490.944 737.004 501.242 742.427 513.375C749.77 529.803 749.552 549.083 742.97 565.731C736.153 582.972 722.026 598.157 704.863 605.422C689.088 612.099 670.836 612.6 654.943 605.987C649.222 603.607 643.948 600.323 639.143 596.425C637.848 595.374 635.971 593.962 635.272 592.42L634.993 591.732L634.77 591.272L634.641 590.993C625.409 597.945 615.614 600.077 604.274 600.867C600.201 601.151 596.005 601.289 592.05 602.377C586.925 603.787 582.39 606.405 577.525 608.481C571.108 611.219 563.574 612.827 556.677 613.685L556.872 613.948C559.51 617.565 559.45 621.483 558.774 625.748C556.803 638.188 546.154 649.54 536.28 656.539C521.063 667.325 499.719 677.563 480.644 674.106C476.764 673.403 472.966 672.058 469.341 670.528L469.591 670.105C471.433 666.922 472.641 663.536 473.704 660.028C484.281 662.082 494.71 662.662 504.11 656.321C510.782 651.82 514.576 645.241 515.964 637.396L516.635 632.224L536.625 633.729C539.019 633.79 541.819 634.004 544.136 633.45C546.037 632.995 547.7 632.136 549.201 630.89C553.881 627.006 556.152 620.499 556.555 614.603L558.688 585.738C571.648 580.04 586.015 572.289 600.483 577.821C602.947 578.764 605.43 579.988 607.568 581.544C609.264 582.777 610.99 584.507 612.822 585.451L618.974 577.969C615.498 572.995 612.635 567.662 609.812 562.297C602.274 547.967 596.511 533.043 591.197 517.775C586.998 505.713 582.783 493.288 580.936 480.617C579.297 469.374 579.499 456.671 581.446 445.453C582.993 436.538 586.468 430.698 593.138 424.701C584.895 429.363 576.048 433.08 568.07 438.168C556.868 445.313 547.709 454.538 537.778 463.214L537.837 462.701C538.386 457.66 538.269 452.403 538.323 447.33C538.541 426.622 536.957 405.539 530.591 385.73L527.3 376.433L523.074 366.716C522.822 366.113 521.925 364.462 521.907 363.876C521.892 363.377 522.692 361.745 522.892 361.21L526.235 352.475C528.442 346.531 529.94 340.315 531.107 334.09C533.225 322.793 534.167 311.094 534.761 299.625C536.227 271.324 534.368 241.863 527.385 214.312L524.764 204.668C524.341 203.122 524.102 201.246 523.328 199.848C503.57 202.02 483.495 208.294 465.467 216.562C458.583 219.72 452.009 222.938 445.585 226.981C433.493 234.591 422.276 243.805 411.062 252.64C406.026 257.07 400.259 261.722 396.234 267.094L380.289 265.931C379.765 265.895 376.898 265.875 376.604 265.657Z"></path>
	<path fill="#D84839" transform="scale(0.666667 0.666667)" d="M603.588 457.312L604.711 457.279C606.267 458.925 607.108 461.392 607.867 463.502C608.234 464.524 606.799 466.799 606.32 467.812C605.999 468.388 606.083 468.486 605.438 468.737C604.939 466.409 603.719 464.356 603.253 461.991C602.954 460.478 602.677 458.638 603.588 457.312Z"></path>
	<path fill="#D84839" transform="scale(0.666667 0.666667)" d="M619.542 433.688L620.163 433.758C618.417 438.569 616.467 443.824 615.465 448.832C615.001 451.147 615.296 455.359 614.306 457.312L613.514 456.497C612.073 454.005 610.796 451.661 610.82 448.716C610.868 442.837 615.603 437.567 619.542 433.688Z"></path>
	<path fill="#D84839" transform="scale(0.666667 0.666667)" d="M643.897 400.266C646.32 400.348 648.911 400.267 651.234 401.033L651.75 401.215C654.629 402.192 656.896 403.637 658.937 405.901C663.672 411.153 664.402 418.893 664.04 425.625L663.709 425.678L663.451 424.782C660.634 416.138 655.214 408.471 647.297 403.785C645.408 402.667 642.478 402.012 640.894 400.626L643.897 400.266Z"></path>
	<path fill="#D84839" transform="scale(0.666667 0.666667)" d="M582.468 371.438C583.406 371.273 584.137 371.51 585.009 371.848C592.979 374.94 595.753 380.972 599.116 388.337L593.196 386.152C587.845 384.634 582.996 382.943 577.937 380.602C580.201 379.292 582.974 378.51 585.451 377.66C584.617 376.769 583.8 375.887 583.141 374.854C582.324 373.57 582.118 372.935 582.468 371.438Z"></path>
	<path fill="#D84839" transform="scale(0.666667 0.666667)" d="M376.604 265.657L376.616 264.735C376.638 263.025 378.541 262.357 379.984 261.764C383.984 260.121 388.07 258.786 391.938 256.821C400.501 252.471 407.066 245.924 412.524 238.135L410.927 246.286C410.709 248.146 409.92 251.19 411.062 252.64C406.026 257.07 400.259 261.722 396.234 267.094L380.289 265.931C379.765 265.895 376.898 265.875 376.604 265.657Z"></path>
	<path fill="#D84839" transform="scale(0.666667 0.666667)" d="M626.161 272.063C626.813 272.034 626.451 271.984 627.217 272.356L627.031 275.25C627.183 276.447 630.254 276.733 631.312 277.479C633.396 278.948 635.171 281.918 635.457 284.426C635.739 286.904 634.77 290.082 633.088 291.915C630.609 294.616 628.046 294.702 624.606 294.734L623.506 294.596C620.415 294.165 617.743 293.139 615.882 290.495C614.16 288.047 613.935 284.757 614.556 281.903C615.372 278.16 623.087 274.112 626.161 272.063Z"></path>
	<path fill="#D84839" transform="scale(0.666667 0.666667)" d="M682.78 382.688C683.308 382.646 683.205 382.637 683.685 382.655C685.706 382.731 687.739 383.306 689.099 384.905C690.689 386.773 690.888 389.22 691.15 391.571C691.445 394.214 691.977 397.309 691.476 399.938C690.66 404.218 686.122 407.752 684.515 411.938C683.325 415.037 683.191 419.029 682.835 422.319C682.085 419.777 681.447 417.274 680.101 414.966L679.885 414.603C678.746 413.329 677.078 412.592 675.591 411.805C675.952 411.106 675.762 411.4 676.238 410.775C677.892 408.604 679.319 406.383 680.151 403.757L680.343 403.125C681.109 400.724 681.04 398.668 680.953 396.174C677.904 396.847 674.934 398.402 671.812 398.463C671.732 398.205 671.55 397.957 671.571 397.688C671.602 397.307 672.326 396.496 672.586 396.164C673.974 394.395 675.585 392.64 676.776 390.74C677.55 389.505 678.104 388.111 678.766 386.812C679.834 384.72 680.468 383.43 682.78 382.688Z"></path>
	<path fill="#D84839" transform="scale(0.666667 0.666667)" d="M721.114 542.366C719.592 548.849 717.565 555.203 713.867 560.812C709.233 567.842 701.839 573.154 694.875 577.71C690.767 580.397 686.874 581.174 682.074 580.051C678.147 579.132 674.611 576.167 672.604 572.759C671.976 571.149 671.738 569.281 672.047 567.562C672.551 564.758 674.303 562.361 676.601 560.742C679.518 558.686 683.9 558.912 687.28 559.64C691.079 560.457 693.024 564.01 694.916 567.055L700.209 563.729C702.772 562.205 705.492 560.981 707.871 559.148C713.499 554.811 718.186 548.789 721.114 542.366Z"></path>
	<path fill="#D84839" transform="scale(0.666667 0.666667)" d="M661.813 339.482C667.159 339.08 671.528 340.163 676.652 341.424C683.839 343.194 690.324 345.24 696.271 349.828C701.662 353.987 706.325 361.021 707.869 367.699C708.479 370.336 708.607 373.138 708.963 375.822C707.257 371.815 705.543 367.414 703.111 363.784C700.768 360.289 697.314 357.113 694.056 354.481C689.346 351.043 683.826 348.258 678.392 346.189C678.584 350.417 678.31 354.288 675.531 357.734L675.188 358.149L673.608 360.008C669.955 363.729 664.964 366.811 659.649 366.789C655.552 366.772 651.183 364.634 648.408 361.613C646.223 359.234 644.646 355.982 645.03 352.688C645.386 349.633 646.849 346.991 649.345 345.194L649.787 344.885C653.35 342.357 657.537 340.386 661.813 339.482Z"></path>
	<path fill="#D84839" transform="scale(0.666667 0.666667)" d="M623.067 203.36C626.737 202.574 631.903 203.474 635.297 204.92C639.362 206.651 642.335 210.075 643.984 214.107C646.428 220.086 646.099 226.569 643.602 232.46C639.174 242.907 630.245 245.63 620.611 249.427C621.278 248.54 622.502 247.752 623.359 247.018C625.214 245.43 627.037 243.761 628.728 241.998C631.07 239.557 633.05 237.165 632.962 233.625C630.663 228.942 624.094 225.424 619.509 223.399L618.147 223.053C602.412 219.617 586.128 222.966 572.631 231.745L569.191 233.792C573.396 229.906 577.374 225.916 581.93 222.429C588.649 217.289 596.016 213.429 603.678 209.892C609.968 206.988 616.171 204.383 623.067 203.36Z"></path>
</svg><style>@media (prefers-color-scheme: light) { :root { filter: none; } }
</style></svg>